<svg xmlns="http://www.w3.org/2000/svg" viewBox="0 0 504.567 225.886">
  <defs>
    <style>
      .cls-1 {
        fill: #a6a8b0;
      }

      .cls-2 {
        fill: #00406c;
      }
    </style>
  </defs>
  <g id="Layer_2" data-name="Layer 2">
    <g id="Layer_1-2" data-name="Layer 1">
      <g>
        <polygon class="cls-1" points="255.105 180.499 255.105 155.106 250.8 155.106 250.8 150.192 260.54 150.192 260.54 180.499 255.105 180.499"/>
        <path class="cls-1" d="M281.933,160.28a5.355,5.355,0,0,0-1.7-4,5.481,5.481,0,0,0-4-1.653,5.627,5.627,0,0,0-4,1.653,5.481,5.481,0,0,0-1.652,4,5.641,5.641,0,0,0,5.652,5.7,5.456,5.456,0,0,0,5.7-5.7M270.106,180.5l6.87-10.175a5.217,5.217,0,0,1-1.739.261,10.032,10.032,0,0,1-6.827-2.826,9.594,9.594,0,0,1-3.13-7.392A10.225,10.225,0,0,1,268.5,152.8a11.3,11.3,0,0,1,15.567-.043,10.136,10.136,0,0,1,3.13,7.522,10.662,10.662,0,0,1-1.13,4.7,58.457,58.457,0,0,1-3.565,5.913l-6.349,9.61Z"/>
        <path class="cls-1" d="M292.848,172.367a6.622,6.622,0,0,0,6.087,3.7,5.98,5.98,0,0,0,4.217-1.653,5.355,5.355,0,0,0,1.739-4.087,5.2,5.2,0,0,0-1.912-4.13,6.923,6.923,0,0,0-4.7-1.609,13.644,13.644,0,0,0-7.653,2l2.827-16.394H308.2v4.915H297.587l-.914,5.13a9.07,9.07,0,0,1,2.74-.391,10.571,10.571,0,0,1,7.653,3.087,9.878,9.878,0,0,1,3.174,7.392,9.995,9.995,0,0,1-3.305,7.566,11.235,11.235,0,0,1-8,3.13,11.76,11.76,0,0,1-10.522-6.13Z"/>
        <path class="cls-1" d="M316.979,172.367a6.624,6.624,0,0,0,6.088,3.7,5.982,5.982,0,0,0,4.217-1.653,5.358,5.358,0,0,0,1.739-4.087,5.2,5.2,0,0,0-1.913-4.13,6.919,6.919,0,0,0-4.7-1.609,13.641,13.641,0,0,0-7.653,2l2.827-16.394h14.74v4.915H321.719l-.914,5.13a9.065,9.065,0,0,1,2.74-.391,10.566,10.566,0,0,1,7.652,3.087,9.875,9.875,0,0,1,3.175,7.392,9.991,9.991,0,0,1-3.305,7.566,11.233,11.233,0,0,1-8,3.13,11.76,11.76,0,0,1-10.523-6.13Z"/>
        <polygon class="cls-2" points="250.8 137.627 250.8 40.545 272.25 40.545 272.25 84.141 306.932 40.545 332.839 40.545 293.84 88.181 334.371 137.627 308.186 137.627 272.25 93.334 272.25 137.627 250.8 137.627"/>
        <polygon class="cls-2" points="364.317 137.816 364.317 60.234 337.992 60.234 337.992 40.734 411.674 40.734 411.674 60.234 385.767 60.234 385.767 137.816 364.317 137.816"/>
        <path class="cls-2" d="M467.657,25.552a10.1,10.1,0,0,1,20.2,0c0,5.153-4.6,9.611-10.028,9.611-5.572,0-10.168-4.458-10.168-9.611m-28.972,0a10.1,10.1,0,0,1,20.2,0c0,5.153-4.6,9.611-10.168,9.611C443.282,35.163,438.685,30.705,438.685,25.552ZM421.971,40.734h21.45V96.309c0,15.739,6.685,23.539,19.918,23.539s19.778-7.8,19.778-23.539V40.734h21.45v57.8c0,13.093-3.9,23.121-11.7,30.225s-17.689,10.585-29.528,10.585q-17.969,0-29.668-10.446c-7.8-7.1-11.7-17.132-11.7-30.364Z"/>
        <path class="cls-2" d="M226.528,113.264A113.173,113.173,0,0,1,125.4,225.881V113.264h32.361v67.575a80.9,80.9,0,1,0-88.995,0v-67.58H101.13V225.886a113.269,113.269,0,1,1,125.4-112.622"/>
      </g>
    </g>
  </g>
</svg>
